<svg width="256" height="256" viewBox="0 0 120 120" fill="none" xmlns="http://www.w3.org/2000/svg">
      <!-- 背景圆形 -->
      <circle
        cx="60"
        cy="60"
        r="58"
        fill="url(#backgroundGradient)"
        stroke="#E5E7EB"
        stroke-width="2"
      />
      
      <!-- 主要石头 - 简洁的单块设计 -->
      <path
        d="M30 80 L35 35 L50 30 L70 30 L85 35 L90 80 L85 85 L75 90 L45 90 L35 85 Z"
        fill="url(#mainStoneGradient)"
        stroke="#6B7280"
        stroke-width="2"
        stroke-linejoin="round"
      />
      
      <!-- 左侧面 - 立体效果 -->
      <path
        d="M30 80 L35 35 L50 30 L45 75 L35 85 Z"
        fill="url(#leftFaceGradient)"
        stroke="#6B7280"
        stroke-width="1.5"
        stroke-linejoin="round"
      />
      
      <!-- 顶部面 - 立体效果 -->
      <path
        d="M35 35 L50 30 L70 30 L85 35 L75 40 L45 40 Z"
        fill="url(#topFaceGradient)"
        stroke="#6B7280"
        stroke-width="1.5"
        stroke-linejoin="round"
      />
      
      <!-- 高光效果 -->
      <path
        d="M40 45 L50 40 L65 40 L70 45"
        stroke="#F9FAFB"
        stroke-width="2.5"
        stroke-linecap="round"
        opacity="0.8"
      />
      <path
        d="M38 50 L42 46"
        stroke="#F9FAFB"
        stroke-width="2"
        stroke-linecap="round"
        opacity="0.6"
      />
      
      <!-- 阴影细节 -->
      <path
        d="M75 85 L85 80 L85 85 L75 90"
        fill="#44403C"
        opacity="0.3"
      />
      
      <!-- 渐变定义 -->
      <defs>
        <radialGradient id="backgroundGradient" cx="0.3" cy="0.3" r="1">
          <stop offset="0%" stop-color="#F8FAFC" />
          <stop offset="100%" stop-color="#E2E8F0" />
        </radialGradient>
        
        <linearGradient id="mainStoneGradient" x1="0.2" y1="0.2" x2="0.8" y2="0.9">
          <stop offset="0%" stop-color="#78716C" />
          <stop offset="40%" stop-color="#68625D" />
          <stop offset="100%" stop-color="#44403C" />
        </linearGradient>
        
        <linearGradient id="leftFaceGradient" x1="0" y1="0" x2="1" y2="1">
          <stop offset="0%" stop-color="#57534E" />
          <stop offset="100%" stop-color="#3C3836" />
        </linearGradient>
        
        <linearGradient id="topFaceGradient" x1="0" y1="0" x2="1" y2="1">
          <stop offset="0%" stop-color="#A8A29E" />
          <stop offset="50%" stop-color="#78716C" />
          <stop offset="100%" stop-color="#68625D" />
        </linearGradient>
      </defs></svg>